<svg version="1.1" xmlns="http://www.w3.org/2000/svg" viewBox="0 0 1202.8708586380696 896.6703988056132" width="1202.8708586380696" height="896.6703988056132">
  <!-- svg-source:excalidraw -->
  
  <defs>
    <style>
      @font-face {
        font-family: "Virgil";
        src: url("https://excalidraw.com/Virgil.woff2");
      }
      @font-face {
        font-family: "Cascadia";
        src: url("https://excalidraw.com/Cascadia.woff2");
      }
    </style>
  </defs>
  <g stroke-linecap="round" transform="translate(10 221.31460303596032) rotate(0 65.04926575424652 325.28737391471543)"><path d="M0.77 -0.44 L128.78 0.49 L131.27 651.18 L1.16 652.31" stroke="none" stroke-width="0" fill="#d8c3a5"></path><path d="M-1.3 -0.27 C45.4 -0.72, 90.01 -1.21, 131.1 0.61 M-0.07 0.53 C32.29 0.99, 66.75 0.86, 130.13 -0.32 M129.34 -0.4 C132.27 240.64, 131.54 482.18, 130.22 650.65 M130.11 0.09 C131.04 236.4, 130.8 472.62, 130.14 650.58 M129.17 651.42 C82.26 651.29, 30.96 650.97, 0.64 650.64 M129.52 650.07 C83.3 650.87, 37.16 650, 0.85 650 M0.72 649.98 C-2.76 440.86, -1.95 233.23, 0.34 0.23 M0.07 650.36 C-0.6 458.32, -0.52 266.9, 0.23 0.11" stroke="#d8c3a5" stroke-width="1" fill="none"></path></g><g stroke-linecap="round" transform="translate(137.75720584070217 444.80919098694653) rotate(0 18.43950765055847 206.11598196410682)"><path d="M-0.44 -1.32 L37.36 1.17 L37.48 413.39 L1.74 410.6" stroke="none" stroke-width="0" fill="#d8c3a5"></path><path d="M-0.27 -0.57 C13.01 -1.71, 25.54 1.24, 37.49 -0.89 M0.53 -0.94 C8.46 0.3, 16.81 0.06, 36.56 0.7 M36.34 0.56 C38.32 151.1, 39.46 303.21, 36.98 412.92 M37.01 0.33 C38.52 134.74, 38.49 269.53, 36.89 412.64 M37.72 413.16 C27.07 410.46, 17.33 412.7, 0.06 413.37 M36.38 411.84 C23.84 411.88, 9.91 412.87, -0.57 412.44 M-0.82 411.92 C-2.6 249.29, -0.78 85.25, 0.32 -0.05 M-0.29 412.65 C0.93 274.7, 1.76 136.42, 0.15 0.21" stroke="#d8c3a5" stroke-width="1" fill="none"></path></g><g stroke-linecap="round" transform="translate(168.98730256326314 89.18429080693386) rotate(0 87.573733662253 388.7455638822706)"><path d="M-1.32 0.49 L176.32 0.6 L176.31 779.23 L-1.63 778.56" stroke="none" stroke-width="0" fill="#d8c3a5"></path><path d="M-0.57 -0.01 C60.24 -0.25, 125.38 0.85, 174.26 -1.4 M-0.94 -0.03 C39.07 -1.09, 77.62 -1.25, 175.85 0.68 M175.56 -0.07 C171.9 286.97, 172.33 572.48, 175.65 777.71 M175.39 0.15 C175.26 283.08, 175.29 565.91, 175.45 777.31 M176.08 777.12 C106.4 777.54, 41.51 778.29, 1.13 778.57 M174.76 777.51 C118.73 775.76, 63.43 776.04, 0.21 778.46 M-0.23 776.74 C-2.22 490.19, -2.46 201.96, -0.04 0.28 M0.3 777.26 C-0.14 587.91, -0.3 397.71, 0.15 -0.09" stroke="#d8c3a5" stroke-width="1" fill="none"></path></g><g stroke-linecap="round" transform="translate(376.3030940249522 373.5033540580407) rotate(0 74.32971105011399 244.9457022978463)"><path d="M0.49 1.17 L149.26 1.16 L150.4 488.26 L1.07 491.4" stroke="none" stroke-width="0" fill="#d8c3a5"></path><path d="M-0.01 -1.95 C34.45 1.43, 70.51 -0.46, 147.26 -1.57 M-0.03 0.28 C43.46 1.43, 86.92 2.1, 149.34 0.68 M148.59 -0.33 C148.44 100.93, 147.72 202.13, 148.88 490.42 M148.81 0 C149.27 148.64, 149.14 297.51, 148.47 490.24 M148.29 488.29 C110.29 491.23, 73.36 491.72, 1.08 490.32 M148.68 489.76 C111.85 490.16, 76.17 489.52, 0.97 490.59 M-0.78 490.49 C2.14 299.19, 1.77 107.74, 0.29 -0.46 M-0.25 490.29 C1.48 334.8, 1.21 179.39, -0.09 -0.27" stroke="#d8c3a5" stroke-width="1" fill="none"></path></g><g stroke-linecap="round" transform="translate(394.78097196694785 109.12448269224251) rotate(0 59.35588928993971 241.4679334551107)"><path d="M61.17 0.6 L119.87 243.74 L58.37 484.01 L1.51 241.95" stroke="none" stroke-width="0" fill="#d8c3a5" fill-rule="evenodd"></path><path d="M58.41 -0.4 C77.06 69.79, 92.32 137.43, 117.43 241.89 M60.23 -0.13 C78.89 85.17, 100.16 171.4, 119.27 241.23 M118.07 243.57 C105.27 302.44, 91.36 363.07, 61.05 482.99 M118.72 242.25 C101.03 320.1, 82.57 397.63, 60.68 482.55 M58.69 482.37 C39.09 400.48, 18.96 318.91, 0.35 241.05 M59.89 482.24 C46.48 422.27, 30.96 363.34, 0.58 242.74 M1.18 243.19 C14.77 188.45, 27.5 134.07, 59.09 0.28 M0.79 242.75 C13.75 182.87, 28.38 122.84, 59.46 0.2" stroke="#d8c3a5" stroke-width="1" fill="none"></path></g><g stroke-linecap="round" transform="translate(327.9277490975617 649.5305604354126) rotate(0 62.10766639255638 106.70298419587704)"><path d="M0.6 1.16 L125.95 -1.63 L125.29 214.92 L-0.05 213.9" stroke="none" stroke-width="0" fill="#d8c3a5"></path><path d="M-0.49 1 C34.31 0.32, 65.99 -0.36, 124.08 1.06 M-0.16 0.03 C25.27 0.35, 51.86 0.33, 123.27 -0.5 M125.89 0.26 C124.21 76.17, 124.52 151.24, 124.27 213.82 M124.49 0.1 C124.92 77.75, 124.52 154.91, 123.81 213.78 M123.53 214.05 C81.23 213.54, 39.21 212.84, -1.16 212.4 M123.36 214.25 C91.24 213.45, 60.38 213.94, 0.9 212.66 M1.28 214.15 C2.26 155.4, 2.36 96.58, 0.3 -0.94 M0.81 213.91 C1.34 133.49, 0.91 52.31, 0.21 0.51" stroke="#d8c3a5" stroke-width="1" fill="none"></path></g><g stroke-linecap="round" transform="translate(521.2155095884532 499.6584157587556) rotate(0 49.13186687535631 182.57986656459713)"><path d="M1.16 1.74 L96.63 1.07 L99.78 365.1 L0.49 363.83" stroke="none" stroke-width="0" fill="#d8c3a5"></path><path d="M1 0.61 C28.55 -1.15, 57.31 0.11, 99.32 -1.88 M0.03 -0.32 C29.89 0.83, 59.06 -0.79, 97.77 0.52 M98.45 0.11 C98.15 106.66, 98.16 212.69, 98.56 365.92 M98.33 0.01 C98.76 122.84, 98.81 245.95, 98.53 365.45 M98.91 365.22 C71.75 365.91, 43.4 363.66, -1 364.38 M99.11 364.58 C68.79 365.3, 39.59 365.22, -0.75 364.87 M0.53 365.52 C-1.7 290.13, -2.34 214.43, -0.67 0.95 M0.36 365.33 C-1.96 276.95, -2.62 189.16, 0.37 0.19" stroke="#d8c3a5" stroke-width="1" fill="none"></path></g><g stroke-linecap="round" transform="translate(628.0823054131462 10) rotate(0 31.34594548708725 438.3351994028066)"><path d="M1.74 -1.63 L63.76 1.51 L62.64 877.16 L-1.33 877.25" stroke="none" stroke-width="0" fill="#d8c3a5"></path><path d="M0.61 -0.89 C11.3 -1.88, 25.27 0.75, 60.81 -0.06 M-0.32 0.7 C21.24 0.66, 40.18 -0.52, 63.21 -0.09 M62.76 0.51 C66.26 229, 66.07 457.16, 63.18 876.97 M62.7 0.3 C63.6 264.36, 63.6 528.21, 62.88 876.6 M62.75 877.8 C49.99 877.3, 33.96 875.87, -0.78 876.71 M62.12 876.88 C45.7 877.91, 27.66 876.45, -0.29 875.74 M0.23 876.63 C-2.28 550.2, -2.42 224.19, 0.61 -0.47 M0.11 876.82 C-3.32 528.64, -3.13 181.38, 0.12 0.23" stroke="#d8c3a5" stroke-width="1" fill="none"></path></g><g stroke-linecap="round" transform="translate(698.1719147870767 325.5034107800352) rotate(0 79.18668895014736 261.9270466375761)"><path d="M-1.63 1.07 L159.89 -0.05 L158.87 522.53 L0.58 525.21" stroke="none" stroke-width="0" fill="#d8c3a5"></path><path d="M-0.89 -1.4 C42.03 -0.62, 88.25 -2.37, 158.31 0.56 M0.7 0.68 C45.68 -0.44, 89.5 1.02, 158.29 -0.39 M158.88 0.21 C159.19 207.22, 158.87 414.88, 158.67 523.86 M158.67 -0.18 C158.94 173.25, 158.77 347.06, 158.3 523.53 M159.51 524.94 C116.72 522.74, 73.21 523.12, 0.04 523.59 M158.59 524.83 C125.03 523.84, 89.54 522.66, -0.93 524.57 M-0.04 524.13 C-1.33 328.58, -1.32 133.64, -0.47 0.77 M0.15 523.77 C-1.46 318.58, -0.96 113.23, 0.23 0.35" stroke="#d8c3a5" stroke-width="1" fill="none"></path></g><g stroke-linecap="round" transform="translate(884.6308702377692 549.5881264343927) rotate(0 79.3733751757859 153.43209604263615)"><path d="M1.07 1.51 L158.69 0.49 L157.42 307.44 L1.36 305.45" stroke="none" stroke-width="0" fill="#d8c3a5"></path><path d="M-1.4 -1.57 C55.45 1.77, 109.28 0.65, 159.31 -0.32 M0.68 0.68 C47.22 -1.61, 96.85 -1.2, 158.35 0.96 M159.13 0.92 C158.99 96.87, 159.83 193.61, 158.76 307.31 M158.43 0.6 C158.44 95.71, 159.11 190.68, 158.17 306.62 M159.83 307.29 C104.85 306.76, 52.49 307.81, -0.27 305.16 M159.72 307.57 C98.55 306.45, 36.28 306.27, 0.72 307.59 M0.5 306.06 C-0.39 201.03, 0.46 95.89, 1.4 1.33 M-0.16 306.39 C-0.42 197.69, -0.38 88.1, 0.63 -0.59" stroke="#d8c3a5" stroke-width="1" fill="none"></path></g><g stroke-linecap="round" transform="translate(992.9081432178318 322.48691556102244) rotate(0 99.98135771011891 241.58009276853795)"><path d="M1.51 -0.05 L200.46 -1.33 L200.54 484.52 L-1.41 481.86" stroke="none" stroke-width="0" fill="#d8c3a5"></path><path d="M-1.57 -0.13 C67.2 -0.48, 132.22 1.96, 199.64 0.07 M0.68 -0.94 C53.12 -0.83, 107.15 -1.74, 200.92 0.15 M200.51 0.03 C201.47 149.82, 201.59 298.61, 200.23 483.25 M200.32 -0.2 C201.69 145.83, 201.43 290.92, 199.82 483.3 M200.39 482 C138.36 483.46, 78.81 483.97, -1.7 484.86 M200.67 484.06 C150.72 484.82, 102.05 485.82, 0.73 483.58 M-0.48 483.31 C-0.36 324.9, -0.4 166.17, 0.79 0.49 M-0.28 483.26 C-0.55 325.43, -0.55 167.81, -0.35 0.23" stroke="#d8c3a5" stroke-width="1" fill="none"></path></g><g stroke-linecap="round" transform="translate(269.342955087433 736.178057399117) rotate(0 445.7205581413781 57.57831175016497)"><path d="M-0.05 0.49 L890.11 0.58 L892.8 113.74 L-1.3 116.25" stroke="none" stroke-width="0" fill="#d8c3a5"></path><path d="M-0.05 0.42 C226.97 2.78, 455.66 2.67, 891.47 -0.25 M-0.38 -0.2 C330.03 -2.46, 659.49 -2.05, 891.5 0.04 M891.51 0.47 C892.97 42.56, 891.77 84.26, 891.66 115.18 M890.98 0.42 C891.4 42.98, 890.13 85.99, 891.76 115.19 M890.98 114.76 C573.16 115.94, 255.41 115.24, 0.68 114.7 M891.8 114.86 C604.99 117.29, 319.06 117.95, 0.17 115.27 M0.34 114.09 C1.12 79.99, 1.53 49.02, 1.14 0.53 M0.24 115.74 C0.55 76.76, 1.12 36.38, 0.54 0.76" stroke="#d8c3a5" stroke-width="1" fill="none"></path></g></svg>